<?xml version="1.0" encoding="utf-8"?>
<!-- Generator: Adobe Illustrator 24.0.1, SVG Export Plug-In . SVG Version: 6.00 Build 0)  -->
<svg version="1.0" xmlns="http://www.w3.org/2000/svg" xmlns:xlink="http://www.w3.org/1999/xlink" x="0px" y="0px"
	 viewBox="0 0 124.09 119.78" style="enable-background:new 0 0 124.09 119.78;" xml:space="preserve">
<style type="text/css">
	.st0{fill:#CE2027;}
	.st1{fill:#14385F;}
	.st2{fill:#FFFFFF;}
</style>
<g id="Layer_2">
</g>
<g id="Layer_1">
</g>
<g id="Layer_4">
	<g>
		<g>
			<path class="st0" d="M36.28,93.99c5.75,0,10.75,3.16,13.39,7.83c2.64-4.67,7.64-7.83,13.39-7.83c6.09,0,11.34,3.56,13.83,8.7
				c2.48-5.14,7.73-8.7,13.83-8.7c5.81,0,10.87,3.23,13.48,7.99V57.52c0-22.72-18.42-41.14-41.14-41.14S21.91,34.8,21.91,57.52
				v45.88h0.2C24.44,97.87,29.9,93.99,36.28,93.99z"/>
		</g>
		<g>
			<circle class="st1" cx="44.14" cy="46.8" r="8.62"/>
			<circle class="st2" cx="42.26" cy="46.8" r="4.21"/>
		</g>
		<g>
			<circle class="st1" cx="76" cy="46.8" r="8.62"/>
			<circle class="st2" cx="74.12" cy="46.8" r="4.21"/>
		</g>
	</g>
</g>
</svg>
