<?xml version="1.0" encoding="utf-8"?>
<!-- Generator: Adobe Illustrator 24.0.1, SVG Export Plug-In . SVG Version: 6.00 Build 0)  -->
<svg version="1.0" xmlns="http://www.w3.org/2000/svg" xmlns:xlink="http://www.w3.org/1999/xlink" x="0px" y="0px"
	 viewBox="0 0 329.6 258.89" style="enable-background:new 0 0 329.6 258.89;" xml:space="preserve">
<style type="text/css">
	.st0{fill:#5AA0D7;}
	.st1{fill:#163C66;}
	.st2{fill:#E5D71B;}
	.st3{fill:#F49A9A;}
	.st4{fill:#CE2027;}
	.st5{fill:#14385F;}
	.st6{fill:#FFFFFF;}
</style>
<g id="Layer_2">
</g>
<g id="Layer_1">
	<ellipse class="st0" cx="164.71" cy="132.45" rx="156.82" ry="122.34"/>
	<path class="st1" d="M166.56,31.8c-67.61,0-122.42,42.76-122.42,95.5c0,39.93,31.42,74.13,76.01,88.39
		c-0.77,5.34-14.15,12.94-23.34,17.35c0,0,40.18,1.46,46.67-10.24c0.31-0.55,0.56-1.08,0.78-1.58c7.23,1.04,14.67,1.58,22.28,1.58
		c67.61,0,122.42-42.76,122.42-95.5C288.97,74.56,234.16,31.8,166.56,31.8z"/>
</g>
<g id="Layer_4">
	<g>
		<path class="st2" d="M132.63,101.97c-8.12-8.63-19.63-14.02-32.41-14.02c-24.58,0-44.51,19.93-44.51,44.51
			c0,24.58,19.93,44.51,44.51,44.51c11.81,0,22.53-4.61,30.5-12.11l-30.5-31.4L132.63,101.97z"/>
	</g>
	<circle class="st3" cx="136.81" cy="132.45" r="8.97"/>
	<circle class="st3" cx="169.95" cy="132.45" r="8.97"/>
	<g>
		<g>
			<path class="st4" d="M205.49,164.71c5.75,0,10.75,3.16,13.39,7.83c2.64-4.67,7.64-7.83,13.39-7.83c6.09,0,11.34,3.56,13.83,8.7
				c2.48-5.14,7.73-8.7,13.83-8.7c5.81,0,10.87,3.23,13.48,7.99v-44.47c0-22.72-18.42-41.14-41.14-41.14s-41.14,18.42-41.14,41.14
				v45.88h0.2C193.65,168.59,199.12,164.71,205.49,164.71z"/>
		</g>
		<g>
			<circle class="st5" cx="213.35" cy="117.51" r="8.62"/>
			<circle class="st6" cx="211.48" cy="117.51" r="4.21"/>
		</g>
		<g>
			<circle class="st5" cx="245.21" cy="117.51" r="8.62"/>
			<circle class="st6" cx="243.34" cy="117.51" r="4.21"/>
		</g>
	</g>
</g>
</svg>
